<svg width="35" height="35" viewBox="0 0 35 35" fill="none" xmlns="http://www.w3.org/2000/svg">
<g clip-path="url(#clip0_107_77)">
<path d="M13.125 0.608107C13.3385 0.867571 13.4693 1.18511 13.5005 1.51969C13.5317 1.85427 13.4619 2.19051 13.3 2.48498C12.0353 4.80696 11.3749 7.40969 11.3794 10.0537C11.3794 18.8497 18.55 25.9722 27.3875 25.9722C28.5403 25.9722 29.6625 25.8519 30.7409 25.6222C31.0715 25.5506 31.4159 25.578 31.731 25.7009C32.0461 25.8238 32.318 26.0369 32.5128 26.3134C32.7184 26.601 32.8232 26.9484 32.811 27.3017C32.7987 27.6549 32.67 27.9943 32.445 28.2669C30.7293 30.3744 28.5649 32.0724 26.1096 33.2373C23.6544 34.4021 20.9701 35.0043 18.2525 35C8.16812 35 0 26.8756 0 16.8656C0 9.33186 4.62438 2.86998 11.2088 0.131232C11.5367 -0.00738624 11.9009 -0.0358369 12.2464 0.0501533C12.5919 0.136144 12.9002 0.331932 13.125 0.608107V0.608107Z" fill="white"/>
</g>
<defs>
<clipPath id="clip0_107_77">
<rect width="35" height="35" fill="white"/>
</clipPath>
</defs>
</svg>
