<svg width="35" height="35" viewBox="0 0 35 35" fill="none" xmlns="http://www.w3.org/2000/svg">
<g clip-path="url(#clip0_107_53)">
<path d="M17.5 6.24171C17.7578 6.24171 18.0051 6.13928 18.1875 5.95695C18.3698 5.77463 18.4722 5.52734 18.4722 5.26949V1.85699C18.4722 1.59914 18.3698 1.35185 18.1875 1.16952C18.0051 0.987196 17.7578 0.884766 17.5 0.884766C17.2421 0.884766 16.9949 0.987196 16.8125 1.16952C16.6302 1.35185 16.5278 1.59914 16.5278 1.85699V5.26949C16.5278 5.52734 16.6302 5.77463 16.8125 5.95695C16.9949 6.13928 17.2421 6.24171 17.5 6.24171Z" fill="white"/>
<path d="M17.5 28.7583C17.2421 28.7583 16.9949 28.8607 16.8125 29.0431C16.6302 29.2254 16.5278 29.4727 16.5278 29.7305V33.143C16.5278 33.4009 16.6302 33.6482 16.8125 33.8305C16.9949 34.0128 17.2421 34.1152 17.5 34.1152C17.7578 34.1152 18.0051 34.0128 18.1875 33.8305C18.3698 33.6482 18.4722 33.4009 18.4722 33.143V29.7305C18.4722 29.4727 18.3698 29.2254 18.1875 29.0431C18.0051 28.8607 17.7578 28.7583 17.5 28.7583Z" fill="white"/>
<path d="M8.16668 9.53745C8.35267 9.69673 8.59191 9.77995 8.83659 9.7705C9.08128 9.76105 9.31338 9.65962 9.48653 9.48647C9.65968 9.31332 9.76111 9.08122 9.77056 8.83653C9.78002 8.59185 9.69679 8.3526 9.53751 8.16662L7.1264 5.75551C6.94041 5.59623 6.70117 5.513 6.45649 5.52245C6.2118 5.5319 5.97969 5.63334 5.80655 5.80649C5.6334 5.97963 5.53197 6.21174 5.52251 6.45643C5.51306 6.70111 5.59629 6.94035 5.75557 7.12634L8.16668 9.53745Z" fill="white"/>
<path d="M26.8333 25.4625C26.6473 25.3033 26.4081 25.22 26.1634 25.2295C25.9187 25.2389 25.6866 25.3404 25.5135 25.5135C25.3403 25.6867 25.2389 25.9188 25.2294 26.1635C25.22 26.4081 25.3032 26.6474 25.4625 26.8334L27.8736 29.2445C28.0596 29.4038 28.2988 29.487 28.5435 29.4775C28.7882 29.4681 29.0203 29.3666 29.1934 29.1935C29.3666 29.0204 29.468 28.7882 29.4775 28.5436C29.4869 28.2989 29.4037 28.0596 29.2444 27.8736L26.8333 25.4625Z" fill="white"/>
<path d="M6.24165 17.5001C6.24165 17.2422 6.13922 16.9949 5.95689 16.8126C5.77456 16.6303 5.52728 16.5278 5.26943 16.5278H1.85693C1.59908 16.5278 1.35179 16.6303 1.16946 16.8126C0.987135 16.9949 0.884705 17.2422 0.884705 17.5001C0.884705 17.7579 0.987135 18.0052 1.16946 18.1875C1.35179 18.3698 1.59908 18.4723 1.85693 18.4723H5.26943C5.52728 18.4723 5.77456 18.3698 5.95689 18.1875C6.13922 18.0052 6.24165 17.7579 6.24165 17.5001Z" fill="white"/>
<path d="M33.1431 16.5278H29.7306C29.4727 16.5278 29.2254 16.6303 29.0431 16.8126C28.8608 16.9949 28.7584 17.2422 28.7584 17.5001C28.7584 17.7579 28.8608 18.0052 29.0431 18.1875C29.2254 18.3698 29.4727 18.4723 29.7306 18.4723H33.1431C33.4009 18.4723 33.6482 18.3698 33.8305 18.1875C34.0129 18.0052 34.1153 17.7579 34.1153 17.5001C34.1153 17.2422 34.0129 16.9949 33.8305 16.8126C33.6482 16.6303 33.4009 16.5278 33.1431 16.5278Z" fill="white"/>
<path d="M8.16668 25.4625L5.75557 27.8736C5.59629 28.0596 5.51306 28.2989 5.52251 28.5436C5.53197 28.7882 5.6334 29.0204 5.80655 29.1935C5.97969 29.3666 6.2118 29.4681 6.45649 29.4775C6.70117 29.487 6.94041 29.4038 7.1264 29.2445L9.53751 26.8334C9.69679 26.6474 9.78002 26.4081 9.77056 26.1635C9.76111 25.9188 9.65968 25.6867 9.48653 25.5135C9.31338 25.3404 9.08128 25.2389 8.83659 25.2295C8.59191 25.22 8.35267 25.3033 8.16668 25.4625Z" fill="white"/>
<path d="M26.8333 9.53745L29.2444 7.12634C29.4037 6.94035 29.4869 6.70111 29.4775 6.45643C29.468 6.21174 29.3666 5.97963 29.1934 5.80649C29.0203 5.63334 28.7882 5.5319 28.5435 5.52245C28.2988 5.513 28.0596 5.59623 27.8736 5.75551L25.4625 8.16662C25.3032 8.3526 25.22 8.59185 25.2294 8.83653C25.2389 9.08122 25.3403 9.31332 25.5135 9.48647C25.6866 9.65962 25.9187 9.76105 26.1634 9.7705C26.4081 9.77995 26.6473 9.69673 26.8333 9.53745Z" fill="white"/>
<path d="M17.5 27.2223C22.8694 27.2223 27.2222 22.8695 27.2222 17.5001C27.2222 12.1306 22.8694 7.77783 17.5 7.77783C12.1306 7.77783 7.77777 12.1306 7.77777 17.5001C7.77777 22.8695 12.1306 27.2223 17.5 27.2223Z" fill="white"/>
</g>
<defs>
<clipPath id="clip0_107_53">
<rect width="35" height="35" fill="white"/>
</clipPath>
</defs>
</svg>
