<svg width="35" height="35" viewBox="0 0 35 35" fill="none" xmlns="http://www.w3.org/2000/svg">
<path d="M19.25 12.25C23.5637 12.25 26.0102 15.0045 26.3655 18.3295H26.474C29.2495 18.3295 31.5 20.4943 31.5 23.1648C31.5 25.8353 29.2495 28 26.474 28H12.026C9.25049 28 6.99999 25.8353 6.99999 23.1648C6.99999 20.4943 9.25049 18.3295 12.026 18.3295H12.1345C12.4932 14.9817 14.9362 12.25 19.25 12.25ZM14.686 7C17.234 7 19.4565 8.449 20.5537 10.5788C20.1212 10.5257 19.6858 10.4994 19.25 10.5C15.0675 10.5 12.019 12.7873 10.9305 16.2505L10.822 16.625L10.7415 16.9523L10.4527 17.0048C9.39593 17.22 8.40882 17.6935 7.57948 18.383C6.75015 19.0725 6.10436 19.9565 5.69974 20.9563C4.86606 20.4483 4.2161 19.6877 3.84435 18.7851C3.47259 17.8824 3.39843 16.8847 3.63262 15.937C3.86682 14.9892 4.39718 14.1409 5.1466 13.5153C5.89601 12.8897 6.82543 12.5194 7.79974 12.4582L8.18824 12.4495C8.45809 10.9223 9.25731 9.53902 10.4456 8.54246C11.6338 7.5459 13.1352 6.99979 14.686 7V7Z" fill="#111111"/>
</svg>
