<svg width="35" height="35" viewBox="0 0 35 35" fill="none" xmlns="http://www.w3.org/2000/svg">
<path d="M19.25 12.25C23.562 12.25 26.0103 15.0028 26.3655 18.3295H26.474C29.2495 18.3295 31.5 20.4943 31.5 23.1648C31.5 25.8353 29.2495 28 26.474 28H12.026C9.2505 28 7 25.8353 7 23.1648C7 20.4943 9.2505 18.3295 12.026 18.3295H12.1345C12.4915 14.98 14.9363 12.25 19.25 12.25ZM6.65525 16.975C6.72253 17.1691 6.71942 17.3806 6.64648 17.5725C6.57353 17.7645 6.4354 17.9247 6.25625 18.025L6.11275 18.088L4.711 18.571C4.50414 18.6434 4.27764 18.6356 4.07631 18.549C3.87498 18.4624 3.71347 18.3034 3.62372 18.1034C3.53398 17.9035 3.52253 17.6772 3.59165 17.4692C3.66078 17.2612 3.80543 17.0867 3.997 16.9803L4.1405 16.9173L5.544 16.4343C5.76331 16.359 6.00352 16.3739 6.21188 16.4756C6.42023 16.5773 6.5797 16.7576 6.65525 16.9768V16.975ZM15.61 9.62504C16.191 9.90854 16.7038 10.2778 17.1378 10.71C14.0543 11.347 11.8353 13.3928 10.9375 16.233L10.8238 16.625L10.7433 16.9523L10.4528 17.0048C9.67642 17.1646 8.93535 17.4634 8.26525 17.8868C7.58884 16.8331 7.27549 15.5872 7.37297 14.3389C7.47046 13.0907 7.97343 11.9085 8.80522 10.9726C9.63701 10.0368 10.752 9.39854 11.9802 9.15525C13.2084 8.91196 14.4825 9.07694 15.6083 9.62504H15.61ZM5.10475 9.92254L5.25 9.97854L6.5835 10.6278C6.78009 10.7234 6.93379 10.889 7.01435 11.0922C7.09491 11.2954 7.09651 11.5214 7.01882 11.7257C6.94114 11.93 6.7898 12.0979 6.59458 12.1962C6.39937 12.2945 6.17442 12.3162 5.964 12.257L5.81525 12.201L4.4835 11.5518C4.28692 11.4562 4.13322 11.2905 4.05266 11.0874C3.97209 10.8842 3.9705 10.6582 4.04818 10.4539C4.12587 10.2496 4.27721 10.0817 4.47242 9.98339C4.66764 9.88505 4.89259 9.86335 5.103 9.92254H5.10475ZM17.4825 5.76629C17.6668 5.85619 17.8136 6.00793 17.8974 6.19503C17.9812 6.38213 17.9966 6.59272 17.941 6.79004L17.885 6.93704L17.2358 8.27054C17.1402 8.46713 16.9745 8.62082 16.7713 8.70139C16.5681 8.78195 16.3421 8.78355 16.1378 8.70586C15.9335 8.62818 15.7657 8.47683 15.6673 8.28162C15.569 8.0864 15.5473 7.86146 15.6065 7.65104L15.6625 7.50229L16.3118 6.16879C16.3622 6.06523 16.4325 5.97264 16.5188 5.89633C16.605 5.82002 16.7055 5.76148 16.8144 5.72409C16.9234 5.6867 17.0386 5.67117 17.1535 5.67842C17.2685 5.68566 17.3809 5.71552 17.4843 5.76629H17.4825ZM10.85 5.71029L10.9148 5.85379L11.3978 7.25729C11.4688 7.46389 11.4599 7.68957 11.3729 7.88998C11.286 8.09038 11.1272 8.25101 10.9278 8.34028C10.7284 8.42955 10.5029 8.44101 10.2955 8.37241C10.0881 8.30381 9.91383 8.1601 9.807 7.96954L9.74225 7.82604L9.261 6.42429C9.19112 6.21818 9.20055 5.99342 9.28746 5.79389C9.37437 5.59436 9.53252 5.43438 9.73103 5.34518C9.92955 5.25598 10.1542 5.24396 10.3611 5.31147C10.568 5.37898 10.7423 5.52117 10.85 5.71029V5.71029Z" fill="#111111"/>
</svg>
