<svg width="35" height="35" viewBox="0 0 35 35" fill="none" xmlns="http://www.w3.org/2000/svg">
<path d="M17.4993 4.375C22.12 4.375 24.7414 7.43385 25.1227 11.1271H25.2394C28.2129 11.1271 30.6235 13.5319 30.6235 16.4974C30.6235 19.4636 28.2129 21.8677 25.2394 21.8677L23.983 21.8684L23.9801 21.875H23.5528L22.1156 24.3396C22.0553 24.443 21.9752 24.5335 21.8799 24.606C21.7846 24.6784 21.6759 24.7314 21.5601 24.7619C21.4444 24.7924 21.3237 24.7997 21.2051 24.7836C21.0865 24.7674 20.9722 24.728 20.8688 24.6677C20.7653 24.6074 20.6748 24.5273 20.6024 24.432C20.5299 24.3367 20.4769 24.228 20.4465 24.1122C20.416 23.9964 20.4086 23.8758 20.4248 23.7572C20.4409 23.6385 20.4803 23.5242 20.5406 23.4208L21.447 21.8677L18.3415 21.8684L18.3393 21.875H17.7195L16.2823 24.3396C16.222 24.443 16.1419 24.5335 16.0466 24.606C15.9512 24.6784 15.8426 24.7314 15.7268 24.7619C15.611 24.7924 15.4904 24.7997 15.3717 24.7836C15.2531 24.7674 15.1388 24.728 15.0354 24.6677C14.932 24.6074 14.8415 24.5273 14.769 24.432C14.6966 24.3367 14.6436 24.228 14.6131 24.1122C14.5826 23.9964 14.5753 23.8758 14.5914 23.7572C14.6076 23.6385 14.647 23.5242 14.7073 23.4208L15.6136 21.8677L12.7006 21.8684L12.6984 21.875H11.8869L10.449 24.3396C10.3886 24.443 10.3085 24.5335 10.2132 24.606C10.1179 24.6784 10.0093 24.7314 9.89348 24.7619C9.77769 24.7924 9.65704 24.7997 9.53841 24.7836C9.41978 24.7674 9.3055 24.728 9.20208 24.6677C9.09867 24.6074 9.00815 24.5273 8.93569 24.432C8.86323 24.3367 8.81025 24.228 8.77978 24.1122C8.74932 23.9964 8.74195 23.8758 8.75811 23.7572C8.77427 23.6385 8.81363 23.5242 8.87396 23.4208L9.78031 21.8677H9.75917C6.78562 21.8677 4.375 19.4636 4.375 16.4974C4.375 13.5319 6.78562 11.1271 9.75917 11.1271H9.87583C10.2594 7.40906 12.8785 4.375 17.5 4.375H17.4993ZM12.8545 25.2802C12.9579 25.3405 13.0485 25.4206 13.1209 25.5159C13.1934 25.6112 13.2464 25.7199 13.2769 25.8357C13.3073 25.9515 13.3147 26.0721 13.2985 26.1908C13.2824 26.3094 13.243 26.4237 13.1826 26.5271L11.9066 28.7146C11.8471 28.8197 11.7674 28.9119 11.672 28.9859C11.5766 29.0599 11.4675 29.1142 11.351 29.1457C11.2344 29.1771 11.1128 29.1852 10.9931 29.1692C10.8734 29.1533 10.7581 29.1138 10.6539 29.0529C10.5496 28.9921 10.4585 28.9111 10.3857 28.8148C10.313 28.7184 10.2602 28.6086 10.2303 28.4916C10.2003 28.3747 10.194 28.2529 10.2115 28.1335C10.229 28.014 10.2701 27.8993 10.3323 27.7958L11.6083 25.6083C11.6686 25.5049 11.7487 25.4144 11.844 25.3419C11.9393 25.2694 12.048 25.2164 12.1638 25.1859C12.2796 25.1555 12.4002 25.1481 12.5189 25.1643C12.6375 25.1805 12.7518 25.2199 12.8552 25.2802H12.8545ZM19.0159 26.5271C19.0782 26.4236 19.1192 26.3089 19.1368 26.1894C19.1543 26.07 19.1479 25.9483 19.118 25.8313C19.0881 25.7143 19.0352 25.6045 18.9625 25.5081C18.8898 25.4118 18.7986 25.3308 18.6944 25.27C18.5901 25.2091 18.4748 25.1696 18.3551 25.1537C18.2355 25.1378 18.1138 25.1458 17.9973 25.1773C17.8807 25.2087 17.7716 25.263 17.6762 25.3371C17.5808 25.4111 17.5011 25.5033 17.4417 25.6083L16.1656 27.7958C16.1053 27.8992 16.0659 28.0135 16.0498 28.1322C16.0336 28.2508 16.041 28.3714 16.0715 28.4872C16.1019 28.603 16.1549 28.7117 16.2274 28.807C16.2998 28.9023 16.3903 28.9824 16.4938 29.0427C16.5972 29.103 16.7115 29.1424 16.8301 29.1586C16.9487 29.1747 17.0694 29.1674 17.1851 29.1369C17.3009 29.1064 17.4096 29.0534 17.5049 28.981C17.6002 28.9085 17.6803 28.818 17.7406 28.7146L19.0167 26.5271H19.0159Z" fill="white"/>
</svg>
