<svg width="35" height="35" viewBox="0 0 35 35" fill="none" xmlns="http://www.w3.org/2000/svg">
<path d="M7.34126 16.2123C5.96199 16.5594 4.75692 17.3981 3.95247 18.5711C3.14802 19.744 2.79955 21.1703 2.97255 22.582C3.14554 23.9937 3.82809 25.2936 4.89194 26.2376C5.9558 27.1816 7.32775 27.7046 8.75002 27.7083H24.7917C25.8213 27.7076 26.8391 27.4889 27.7781 27.0665C28.7171 26.644 29.556 26.0276 30.2396 25.2576C30.9232 24.4876 31.4359 23.5815 31.7441 22.5991C32.0523 21.6167 32.1489 20.5801 32.0276 19.5576C31.9063 18.5352 31.5698 17.55 31.0403 16.6669C30.5108 15.7839 29.8003 15.0229 28.9556 14.4343C28.1108 13.8456 27.1509 13.4425 26.1392 13.2515C25.1274 13.0605 24.0867 13.086 23.0854 13.3262L21.1458 13.8542" stroke="#111111" stroke-width="2.91667" stroke-linecap="round" stroke-linejoin="round"/>
<path d="M23.0854 13.3262C22.587 11.3525 21.3567 9.64212 19.644 8.54183C17.9312 7.44154 15.8642 7.03367 13.8619 7.4009C11.8595 7.76812 10.0718 8.88297 8.86095 10.5194C7.65013 12.1559 7.10687 14.1916 7.34128 16.2137C7.34128 16.2137 7.5644 17.5 8.02086 18.2292" stroke="#111111" stroke-width="2.91667" stroke-linecap="round" stroke-linejoin="round"/>
</svg>
