<svg width="35" height="35" viewBox="0 0 35 35" fill="none" xmlns="http://www.w3.org/2000/svg">
<path d="M16.625 29.75C16.8571 29.75 17.0796 29.8422 17.2437 30.0063C17.4078 30.1704 17.5 30.393 17.5 30.625C17.5 30.8571 17.4078 31.0797 17.2437 31.2438C17.0796 31.4079 16.8571 31.5 16.625 31.5C16.3929 31.5 16.1704 31.4079 16.0063 31.2438C15.8422 31.0797 15.75 30.8571 15.75 30.625C15.75 30.393 15.8422 30.1704 16.0063 30.0063C16.1704 29.8422 16.3929 29.75 16.625 29.75ZM21.875 29.75C22.1071 29.75 22.3296 29.8422 22.4937 30.0063C22.6578 30.1704 22.75 30.393 22.75 30.625C22.75 30.8571 22.6578 31.0797 22.4937 31.2438C22.3296 31.4079 22.1071 31.5 21.875 31.5C21.6429 31.5 21.4204 31.4079 21.2563 31.2438C21.0922 31.0797 21 30.8571 21 30.625C21 30.393 21.0922 30.1704 21.2563 30.0063C21.4204 29.8422 21.6429 29.75 21.875 29.75ZM14 28C14.2321 28 14.4546 28.0922 14.6187 28.2563C14.7828 28.4204 14.875 28.643 14.875 28.875C14.875 29.1071 14.7828 29.3297 14.6187 29.4938C14.4546 29.6579 14.2321 29.75 14 29.75C13.7679 29.75 13.5454 29.6579 13.3813 29.4938C13.2172 29.3297 13.125 29.1071 13.125 28.875C13.125 28.643 13.2172 28.4204 13.3813 28.2563C13.5454 28.0922 13.7679 28 14 28V28ZM19.25 28C19.4821 28 19.7046 28.0922 19.8687 28.2563C20.0328 28.4204 20.125 28.643 20.125 28.875C20.125 29.1071 20.0328 29.3297 19.8687 29.4938C19.7046 29.6579 19.4821 29.75 19.25 29.75C19.0179 29.75 18.7954 29.6579 18.6313 29.4938C18.4672 29.3297 18.375 29.1071 18.375 28.875C18.375 28.643 18.4672 28.4204 18.6313 28.2563C18.7954 28.0922 19.0179 28 19.25 28V28ZM24.5 28C24.7321 28 24.9546 28.0922 25.1187 28.2563C25.2828 28.4204 25.375 28.643 25.375 28.875C25.375 29.1071 25.2828 29.3297 25.1187 29.4938C24.9546 29.6579 24.7321 29.75 24.5 29.75C24.2679 29.75 24.0454 29.6579 23.8813 29.4938C23.7172 29.3297 23.625 29.1071 23.625 28.875C23.625 28.643 23.7172 28.4204 23.8813 28.2563C24.0454 28.0922 24.2679 28 24.5 28V28ZM19.25 10.5C23.562 10.5 26.0103 13.2528 26.3655 16.5795H26.474C29.2495 16.5795 31.5 18.7443 31.5 21.4148C31.5 24.0853 29.2495 26.25 26.474 26.25H12.026C9.2505 26.25 7 24.0853 7 21.4148C7 18.7443 9.2505 16.5795 12.026 16.5795H12.1345C12.4915 13.23 14.9363 10.5 19.25 10.5ZM6.65525 15.225C6.72253 15.4191 6.71942 15.6306 6.64648 15.8225C6.57353 16.0145 6.4354 16.1747 6.25625 16.275L6.11275 16.338L4.711 16.821C4.50414 16.8934 4.27764 16.8856 4.07631 16.799C3.87498 16.7124 3.71347 16.5534 3.62372 16.3534C3.53398 16.1535 3.52253 15.9272 3.59165 15.7192C3.66078 15.5112 3.80543 15.3367 3.997 15.2303L4.1405 15.1673L5.544 14.6843C5.76331 14.609 6.00352 14.6239 6.21188 14.7256C6.42023 14.8273 6.5797 15.0076 6.65525 15.2268V15.225ZM15.61 7.87504C16.191 8.15854 16.7038 8.52779 17.1378 8.96004C14.0543 9.59704 11.8353 11.6428 10.9375 14.483L10.8238 14.875L10.7433 15.2023L10.4528 15.2548C9.67642 15.4146 8.93535 15.7134 8.26525 16.1368C7.58884 15.0831 7.27549 13.8372 7.37297 12.5889C7.47046 11.3407 7.97343 10.1585 8.80522 9.22262C9.63701 8.28676 10.752 7.64854 11.9802 7.40525C13.2084 7.16196 14.4825 7.32694 15.6083 7.87504H15.61ZM5.10475 8.17254L5.25 8.22854L6.5835 8.87779C6.78009 8.97336 6.93379 9.13904 7.01435 9.34223C7.09491 9.54542 7.09651 9.77141 7.01882 9.97572C6.94114 10.18 6.7898 10.3479 6.59458 10.4462C6.39937 10.5445 6.17442 10.5662 5.964 10.507L5.81525 10.451L4.4835 9.80179C4.28692 9.70623 4.13322 9.54055 4.05266 9.33735C3.97209 9.13416 3.9705 8.90817 4.04818 8.70386C4.12587 8.49955 4.27721 8.33172 4.47242 8.23339C4.66764 8.13505 4.89259 8.11335 5.103 8.17254H5.10475ZM17.4825 4.01629C17.6668 4.10619 17.8136 4.25793 17.8974 4.44503C17.9812 4.63213 17.9966 4.84272 17.941 5.04004L17.885 5.18704L17.2358 6.52054C17.1402 6.71713 16.9745 6.87082 16.7713 6.95139C16.5681 7.03195 16.3421 7.03355 16.1378 6.95586C15.9335 6.87818 15.7657 6.72683 15.6673 6.53162C15.569 6.33641 15.5473 6.11146 15.6065 5.90104L15.6625 5.75229L16.3118 4.41879C16.3622 4.31523 16.4325 4.22264 16.5188 4.14633C16.605 4.07002 16.7055 4.01148 16.8144 3.97409C16.9234 3.9367 17.0386 3.92117 17.1535 3.92842C17.2685 3.93566 17.3809 3.96552 17.4843 4.01629H17.4825ZM10.85 3.96029L10.9148 4.10379L11.3978 5.50729C11.4688 5.71389 11.4599 5.93957 11.3729 6.13998C11.286 6.34038 11.1272 6.50101 10.9278 6.59028C10.7284 6.67955 10.5029 6.69101 10.2955 6.62241C10.0881 6.55381 9.91383 6.4101 9.807 6.21954L9.74225 6.07604L9.261 4.67429C9.19112 4.46818 9.20055 4.24342 9.28746 4.04389C9.37437 3.84436 9.53252 3.68438 9.73103 3.59518C9.92955 3.50598 10.1542 3.49396 10.3611 3.56147C10.568 3.62898 10.7423 3.77117 10.85 3.96029Z" fill="white"/>
</svg>
