<svg width="35" height="35" viewBox="0 0 35 35" fill="none" xmlns="http://www.w3.org/2000/svg">
<path d="M17.5 3.5C17.8172 3.50001 18.1236 3.61487 18.3626 3.82334C18.6017 4.03181 18.7571 4.31978 18.8003 4.634L18.8125 4.8125V8.96525L21.4497 6.64825C21.7113 6.41851 22.0534 6.30207 22.4008 6.32455C22.7482 6.34703 23.0724 6.50659 23.3021 6.76813C23.5319 7.02966 23.6483 7.37175 23.6258 7.71914C23.6033 8.06653 23.4438 8.39076 23.1822 8.6205L18.8125 12.4582V16.184H22.5417L26.383 11.816C26.5907 11.5797 26.8763 11.4259 27.1879 11.3826C27.4994 11.3392 27.8162 11.4092 28.0805 11.5798L28.2363 11.697C28.4725 11.9047 28.6263 12.1903 28.6697 12.5019C28.7131 12.8134 28.6431 13.1302 28.4725 13.3945L28.3552 13.5503L26.0365 16.184H30.1892C30.5067 16.1841 30.8133 16.2992 31.0524 16.508C31.2915 16.7168 31.4468 17.0052 31.4895 17.3198L31.5017 17.4982C31.5017 17.8154 31.3869 18.1218 31.1784 18.3609C30.9699 18.5999 30.682 18.7554 30.3678 18.7985L30.1892 18.8107H26.033L28.3518 21.4497C28.5594 21.6859 28.6754 21.9887 28.6786 22.3031C28.6818 22.6176 28.572 22.9227 28.3693 23.163L28.2327 23.303C27.9963 23.5109 27.693 23.6268 27.3782 23.6297C27.0634 23.6326 26.758 23.5223 26.5177 23.3187L26.3795 23.1822L22.5382 18.8107L18.8107 18.809L18.8125 22.54L23.184 26.3795C23.4205 26.5869 23.5747 26.8725 23.6184 27.184C23.6621 27.4956 23.5924 27.8125 23.422 28.077L23.3048 28.2327C23.0971 28.469 22.8114 28.6228 22.4999 28.6662C22.1883 28.7096 21.8716 28.6396 21.6073 28.469L21.4515 28.3518L18.8107 26.033V30.1875C18.8107 30.5049 18.6956 30.8116 18.4867 31.0506C18.2779 31.2897 17.9895 31.445 17.675 31.4878L17.4965 31.4983C17.1793 31.4982 16.8729 31.3834 16.6339 31.1749C16.3948 30.9664 16.2394 30.6785 16.1963 30.3642L16.184 30.1858V26.0347L13.552 28.3518C13.2905 28.5815 12.9484 28.6979 12.601 28.6755C12.2536 28.653 11.9294 28.4934 11.6996 28.2319C11.4699 27.9703 11.3534 27.6282 11.3759 27.2809C11.3984 26.9335 11.558 26.6092 11.8195 26.3795L16.1857 22.5382V18.8107L12.768 18.8125L8.62225 23.534C8.39251 23.7955 8.06828 23.9551 7.72089 23.9776C7.3735 24.0001 7.03141 23.8836 6.76987 23.6539C6.50834 23.4241 6.34878 23.0999 6.3263 22.7525C6.30382 22.4051 6.42026 22.063 6.65 21.8015L9.275 18.8125H4.8125C4.49507 18.8124 4.18842 18.6973 3.94936 18.4885C3.71029 18.2797 3.555 17.9913 3.51225 17.6767L3.5 17.5C3.50001 17.1828 3.61487 16.8764 3.82334 16.6374C4.03181 16.3983 4.31978 16.2429 4.634 16.1997L4.8125 16.1875L8.652 16.1857L6.65 13.9002C6.53065 13.7717 6.43829 13.6205 6.37838 13.4556C6.31847 13.2907 6.29222 13.1154 6.3012 12.9402C6.31017 12.765 6.35419 12.5934 6.43063 12.4355C6.50708 12.2776 6.6144 12.1366 6.74627 12.0209C6.87814 11.9051 7.03186 11.817 7.19836 11.7617C7.36487 11.7065 7.54076 11.6851 7.71565 11.699C7.89055 11.7128 8.06089 11.7616 8.2166 11.8424C8.37232 11.9232 8.51025 12.0345 8.62225 12.1695L12.145 16.1857H16.184V12.4565L11.8177 8.617C11.5815 8.40932 11.4277 8.12369 11.3843 7.81213C11.3409 7.50057 11.4109 7.1838 11.5815 6.9195L11.6987 6.7655C11.9062 6.52896 12.1917 6.37481 12.5033 6.33113C12.8149 6.28744 13.1318 6.35713 13.3963 6.5275L13.5503 6.64475L16.1875 8.9635V4.8125C16.1877 4.5249 16.2823 4.24531 16.4568 4.01671C16.6313 3.78812 16.8761 3.62318 17.1535 3.54725L17.3233 3.51225L17.5 3.5Z" fill="#111111"/>
</svg>
