<svg width="35" height="35" viewBox="0 0 35 35" fill="none" xmlns="http://www.w3.org/2000/svg">
<path d="M20.321 21.2275C20.4934 21.3828 20.597 21.6002 20.6092 21.8318C20.6213 22.0635 20.5409 22.2906 20.3857 22.463L18.5885 24.5053H21.875C22.0393 24.5057 22.2002 24.5525 22.3392 24.6402C22.4782 24.7279 22.5897 24.8529 22.6609 25.001C22.7321 25.1491 22.7602 25.3143 22.7419 25.4776C22.7236 25.641 22.6597 25.7958 22.5575 25.9245L18.27 31.1745C18.1254 31.3562 17.9146 31.473 17.6839 31.4993C17.4531 31.5255 17.2214 31.4591 17.0397 31.3145C16.858 31.1699 16.7412 30.9591 16.7149 30.7284C16.6887 30.4977 16.7552 30.266 16.8997 30.0842L20.0585 26.2553H16.625C16.456 26.2552 16.2906 26.2062 16.1488 26.1142C16.007 26.0222 15.8949 25.8911 15.826 25.7367C15.7572 25.5823 15.7345 25.4113 15.7608 25.2443C15.787 25.0773 15.8611 24.9215 15.974 24.7957L19.0837 21.2922C19.1606 21.2066 19.2537 21.137 19.3575 21.0874C19.4614 21.0378 19.574 21.0092 19.6889 21.0032C19.8039 20.9972 19.9188 21.0139 20.0273 21.0524C20.1358 21.0909 20.2356 21.1504 20.321 21.2275V21.2275ZM19.25 10.5C23.5637 10.5 26.0102 13.2545 26.3655 16.5795H26.474C29.2495 16.5795 31.5 18.7443 31.5 21.4148C31.5 24.0853 29.2495 26.25 26.474 26.25H24.3565C24.8832 24.7695 23.9522 23.0773 22.3475 22.7955L22.1252 22.7657C22.2795 22.1958 22.237 21.5904 22.0048 21.0475C21.7725 20.5046 21.364 20.0559 20.8452 19.7739C20.3264 19.4918 19.7277 19.3929 19.1458 19.4932C18.5639 19.5934 18.0328 19.8869 17.6382 20.3262L14.6737 23.625C14.3548 23.9728 14.1372 24.4014 14.0446 24.8642C13.9521 25.327 13.9881 25.8062 14.1487 26.25H12.026C9.25049 26.25 6.99999 24.0853 6.99999 21.4148C6.99999 18.7443 9.25049 16.5795 12.026 16.5795H12.1345C12.4932 13.2317 14.9362 10.5 19.25 10.5ZM14.686 5.25C17.234 5.25 19.4565 6.699 20.5537 8.82875C20.1212 8.77572 19.6858 8.74942 19.25 8.75C15.0675 8.75 12.019 11.0373 10.9305 14.5005L10.822 14.875L10.7415 15.2023L10.4527 15.2548C9.39593 15.47 8.40882 15.9435 7.57948 16.633C6.75015 17.3225 6.10436 18.2065 5.69974 19.2063C4.86606 18.6983 4.2161 17.9377 3.84435 17.0351C3.47259 16.1324 3.39843 15.1347 3.63262 14.187C3.86682 13.2392 4.39718 12.3909 5.1466 11.7653C5.89601 11.1397 6.82543 10.7694 7.79974 10.7082L8.18824 10.6995C8.45809 9.17233 9.25731 7.78902 10.4456 6.79246C11.6338 5.79591 13.1352 5.24979 14.686 5.25V5.25Z" fill="#111111"/>
</svg>
